<mxfile host="app.diagrams.net" modified="2023-09-22T15:03:42.659Z" agent="Mozilla/5.0 (Windows NT 10.0; Win64; x64) AppleWebKit/537.36 (KHTML, like Gecko) Chrome/116.0.0.0 Safari/537.36" etag="b_D25kraSB-USUx8wnSb" version="21.8.0" type="github">
  <diagram name="第 1 页" id="tpTIRuwBdYfcU_tK5nhm">
    <mxGraphModel dx="2074" dy="1193" grid="1" gridSize="10" guides="1" tooltips="1" connect="1" arrows="1" fold="1" page="1" pageScale="1" pageWidth="827" pageHeight="1169" math="0" shadow="0">
      <root>
        <mxCell id="0" />
        <mxCell id="1" parent="0" />
        <mxCell id="cVDtUpflLroiLYzEPpSZ-59" value="" style="rounded=0;whiteSpace=wrap;html=1;" vertex="1" parent="1">
          <mxGeometry x="640" y="700" width="610" height="680" as="geometry" />
        </mxCell>
        <mxCell id="qYZ6arqdh1aG3K48zh44-1" value="b_Move_and_Zoom" style="rounded=1;whiteSpace=wrap;html=1;" parent="1" vertex="1">
          <mxGeometry x="210" y="140" width="120" height="60" as="geometry" />
        </mxCell>
        <mxCell id="qYZ6arqdh1aG3K48zh44-3" value="Draw_BlitAndScroll" style="rounded=1;whiteSpace=wrap;html=1;" parent="1" vertex="1">
          <mxGeometry x="270" y="1390" width="120" height="60" as="geometry" />
        </mxCell>
        <mxCell id="qYZ6arqdh1aG3K48zh44-5" value="List_NowStaticList" style="rounded=1;whiteSpace=wrap;html=1;" parent="1" vertex="1">
          <mxGeometry x="370" y="350" width="120" height="60" as="geometry" />
        </mxCell>
        <mxCell id="qYZ6arqdh1aG3K48zh44-6" value="List_DiffStatic" style="rounded=1;whiteSpace=wrap;html=1;" parent="1" vertex="1">
          <mxGeometry x="270" y="1490" width="120" height="60" as="geometry" />
        </mxCell>
        <mxCell id="cVDtUpflLroiLYzEPpSZ-1" value="if" style="triangle;whiteSpace=wrap;html=1;" vertex="1" parent="1">
          <mxGeometry x="130" y="130" width="60" height="80" as="geometry" />
        </mxCell>
        <mxCell id="cVDtUpflLroiLYzEPpSZ-2" value="if" style="triangle;whiteSpace=wrap;html=1;" vertex="1" parent="1">
          <mxGeometry x="210" y="240" width="60" height="80" as="geometry" />
        </mxCell>
        <mxCell id="cVDtUpflLroiLYzEPpSZ-4" value="b_LastDrawIsShadowMap" style="rounded=1;whiteSpace=wrap;html=1;" vertex="1" parent="1">
          <mxGeometry x="294" y="250" width="120" height="60" as="geometry" />
        </mxCell>
        <mxCell id="cVDtUpflLroiLYzEPpSZ-5" value="Get" style="triangle;whiteSpace=wrap;html=1;" vertex="1" parent="1">
          <mxGeometry x="294" y="340" width="60" height="80" as="geometry" />
        </mxCell>
        <mxCell id="cVDtUpflLroiLYzEPpSZ-6" value="Get" style="triangle;whiteSpace=wrap;html=1;" vertex="1" parent="1">
          <mxGeometry x="370" y="440" width="60" height="80" as="geometry" />
        </mxCell>
        <mxCell id="cVDtUpflLroiLYzEPpSZ-7" value="List_DiffStatic" style="rounded=1;whiteSpace=wrap;html=1;" vertex="1" parent="1">
          <mxGeometry x="440" y="450" width="120" height="60" as="geometry" />
        </mxCell>
        <mxCell id="cVDtUpflLroiLYzEPpSZ-8" value="List_NowStaticList" style="rounded=1;whiteSpace=wrap;html=1;" vertex="1" parent="1">
          <mxGeometry x="610" y="450" width="120" height="60" as="geometry" />
        </mxCell>
        <mxCell id="cVDtUpflLroiLYzEPpSZ-9" value="-" style="triangle;whiteSpace=wrap;html=1;" vertex="1" parent="1">
          <mxGeometry x="760" y="440" width="60" height="80" as="geometry" />
        </mxCell>
        <mxCell id="cVDtUpflLroiLYzEPpSZ-10" value="List_StaticListInShadowMap" style="rounded=1;whiteSpace=wrap;html=1;" vertex="1" parent="1">
          <mxGeometry x="850" y="450" width="120" height="60" as="geometry" />
        </mxCell>
        <mxCell id="cVDtUpflLroiLYzEPpSZ-11" value="else" style="triangle;whiteSpace=wrap;html=1;" vertex="1" parent="1">
          <mxGeometry x="210" y="540" width="60" height="80" as="geometry" />
        </mxCell>
        <mxCell id="cVDtUpflLroiLYzEPpSZ-14" value="Check" style="triangle;whiteSpace=wrap;html=1;" vertex="1" parent="1">
          <mxGeometry x="280" y="600" width="60" height="80" as="geometry" />
        </mxCell>
        <mxCell id="cVDtUpflLroiLYzEPpSZ-60" style="edgeStyle=orthogonalEdgeStyle;rounded=0;orthogonalLoop=1;jettySize=auto;html=1;" edge="1" parent="1" source="cVDtUpflLroiLYzEPpSZ-15" target="cVDtUpflLroiLYzEPpSZ-59">
          <mxGeometry relative="1" as="geometry" />
        </mxCell>
        <mxCell id="cVDtUpflLroiLYzEPpSZ-15" value="KeepScrollOrDrawShadowmap" style="rounded=1;whiteSpace=wrap;html=1;" vertex="1" parent="1">
          <mxGeometry x="370" y="610" width="120" height="60" as="geometry" />
        </mxCell>
        <mxCell id="cVDtUpflLroiLYzEPpSZ-16" value="if" style="triangle;whiteSpace=wrap;html=1;" vertex="1" parent="1">
          <mxGeometry x="130" y="750" width="60" height="80" as="geometry" />
        </mxCell>
        <mxCell id="cVDtUpflLroiLYzEPpSZ-17" value="b_needDrawShadowmap" style="rounded=1;whiteSpace=wrap;html=1;" vertex="1" parent="1">
          <mxGeometry x="220" y="760" width="120" height="60" as="geometry" />
        </mxCell>
        <mxCell id="cVDtUpflLroiLYzEPpSZ-18" value="Draw" style="triangle;whiteSpace=wrap;html=1;" vertex="1" parent="1">
          <mxGeometry x="210" y="860" width="60" height="80" as="geometry" />
        </mxCell>
        <mxCell id="cVDtUpflLroiLYzEPpSZ-19" value="List_StaticListInShadowMap" style="rounded=1;whiteSpace=wrap;html=1;" vertex="1" parent="1">
          <mxGeometry x="290" y="870" width="120" height="60" as="geometry" />
        </mxCell>
        <mxCell id="cVDtUpflLroiLYzEPpSZ-20" value="BlitTo" style="triangle;whiteSpace=wrap;html=1;" vertex="1" parent="1">
          <mxGeometry x="210" y="1040" width="60" height="80" as="geometry" />
        </mxCell>
        <mxCell id="cVDtUpflLroiLYzEPpSZ-21" value="Tex_BlitScrollShadowMap" style="rounded=1;whiteSpace=wrap;html=1;" vertex="1" parent="1">
          <mxGeometry x="290" y="1050" width="120" height="60" as="geometry" />
        </mxCell>
        <mxCell id="cVDtUpflLroiLYzEPpSZ-22" value="Draw" style="triangle;whiteSpace=wrap;html=1;" vertex="1" parent="1">
          <mxGeometry x="210" y="1130" width="60" height="80" as="geometry" />
        </mxCell>
        <mxCell id="cVDtUpflLroiLYzEPpSZ-23" value="List_DynamicList" style="rounded=1;whiteSpace=wrap;html=1;" vertex="1" parent="1">
          <mxGeometry x="290" y="1140" width="120" height="60" as="geometry" />
        </mxCell>
        <mxCell id="cVDtUpflLroiLYzEPpSZ-24" value="else" style="triangle;whiteSpace=wrap;html=1;" vertex="1" parent="1">
          <mxGeometry x="120" y="1270" width="60" height="80" as="geometry" />
        </mxCell>
        <mxCell id="cVDtUpflLroiLYzEPpSZ-25" value="b_keepScrolling" style="rounded=1;whiteSpace=wrap;html=1;" vertex="1" parent="1">
          <mxGeometry x="200" y="1280" width="120" height="60" as="geometry" />
        </mxCell>
        <mxCell id="cVDtUpflLroiLYzEPpSZ-26" value="Draw" style="triangle;whiteSpace=wrap;html=1;" vertex="1" parent="1">
          <mxGeometry x="200" y="1480" width="60" height="80" as="geometry" />
        </mxCell>
        <mxCell id="cVDtUpflLroiLYzEPpSZ-27" value="Draw" style="triangle;whiteSpace=wrap;html=1;" vertex="1" parent="1">
          <mxGeometry x="200" y="1589" width="60" height="80" as="geometry" />
        </mxCell>
        <mxCell id="cVDtUpflLroiLYzEPpSZ-28" value="List_DynamicList" style="rounded=1;whiteSpace=wrap;html=1;" vertex="1" parent="1">
          <mxGeometry x="270" y="1599" width="120" height="60" as="geometry" />
        </mxCell>
        <mxCell id="cVDtUpflLroiLYzEPpSZ-29" value="Draw" style="triangle;whiteSpace=wrap;html=1;" vertex="1" parent="1">
          <mxGeometry x="200" y="1380" width="60" height="80" as="geometry" />
        </mxCell>
        <mxCell id="cVDtUpflLroiLYzEPpSZ-30" value="Draw_Terrain" style="rounded=1;whiteSpace=wrap;html=1;" vertex="1" parent="1">
          <mxGeometry x="290" y="960" width="120" height="60" as="geometry" />
        </mxCell>
        <mxCell id="cVDtUpflLroiLYzEPpSZ-31" value="Draw" style="triangle;whiteSpace=wrap;html=1;" vertex="1" parent="1">
          <mxGeometry x="210" y="950" width="60" height="80" as="geometry" />
        </mxCell>
        <mxCell id="cVDtUpflLroiLYzEPpSZ-33" value="if" style="triangle;whiteSpace=wrap;html=1;" vertex="1" parent="1">
          <mxGeometry x="710" y="750" width="60" height="80" as="geometry" />
        </mxCell>
        <mxCell id="cVDtUpflLroiLYzEPpSZ-34" value="ListDiffStatic" style="rounded=1;whiteSpace=wrap;html=1;" vertex="1" parent="1">
          <mxGeometry x="800" y="760" width="120" height="60" as="geometry" />
        </mxCell>
        <mxCell id="cVDtUpflLroiLYzEPpSZ-35" value="=" style="triangle;whiteSpace=wrap;html=1;" vertex="1" parent="1">
          <mxGeometry x="950" y="750" width="60" height="80" as="geometry" />
        </mxCell>
        <mxCell id="cVDtUpflLroiLYzEPpSZ-36" value="0" style="rounded=1;whiteSpace=wrap;html=1;" vertex="1" parent="1">
          <mxGeometry x="1030" y="760" width="120" height="60" as="geometry" />
        </mxCell>
        <mxCell id="cVDtUpflLroiLYzEPpSZ-38" value="b_needDrawShadowmap" style="rounded=1;whiteSpace=wrap;html=1;" vertex="1" parent="1">
          <mxGeometry x="800" y="860" width="120" height="60" as="geometry" />
        </mxCell>
        <mxCell id="cVDtUpflLroiLYzEPpSZ-39" value="=" style="triangle;whiteSpace=wrap;html=1;" vertex="1" parent="1">
          <mxGeometry x="950" y="850" width="60" height="80" as="geometry" />
        </mxCell>
        <mxCell id="cVDtUpflLroiLYzEPpSZ-40" value="true" style="rounded=1;whiteSpace=wrap;html=1;" vertex="1" parent="1">
          <mxGeometry x="1030" y="860" width="120" height="60" as="geometry" />
        </mxCell>
        <mxCell id="cVDtUpflLroiLYzEPpSZ-41" value="if" style="triangle;whiteSpace=wrap;html=1;" vertex="1" parent="1">
          <mxGeometry x="710" y="950" width="60" height="80" as="geometry" />
        </mxCell>
        <mxCell id="cVDtUpflLroiLYzEPpSZ-42" value="ListDiffStatic" style="rounded=1;whiteSpace=wrap;html=1;" vertex="1" parent="1">
          <mxGeometry x="800" y="960" width="120" height="60" as="geometry" />
        </mxCell>
        <mxCell id="cVDtUpflLroiLYzEPpSZ-43" value="&amp;lt;" style="triangle;whiteSpace=wrap;html=1;" vertex="1" parent="1">
          <mxGeometry x="950" y="950" width="60" height="80" as="geometry" />
        </mxCell>
        <mxCell id="cVDtUpflLroiLYzEPpSZ-44" value="0" style="rounded=1;whiteSpace=wrap;html=1;" vertex="1" parent="1">
          <mxGeometry x="1030" y="960" width="120" height="60" as="geometry" />
        </mxCell>
        <mxCell id="cVDtUpflLroiLYzEPpSZ-47" value="b_needDrawShadowmap" style="rounded=1;whiteSpace=wrap;html=1;" vertex="1" parent="1">
          <mxGeometry x="800" y="1050" width="120" height="60" as="geometry" />
        </mxCell>
        <mxCell id="cVDtUpflLroiLYzEPpSZ-48" value="=" style="triangle;whiteSpace=wrap;html=1;" vertex="1" parent="1">
          <mxGeometry x="950" y="1040" width="60" height="80" as="geometry" />
        </mxCell>
        <mxCell id="cVDtUpflLroiLYzEPpSZ-49" value="true" style="rounded=1;whiteSpace=wrap;html=1;" vertex="1" parent="1">
          <mxGeometry x="1030" y="1050" width="120" height="60" as="geometry" />
        </mxCell>
        <mxCell id="cVDtUpflLroiLYzEPpSZ-50" value="if" style="triangle;whiteSpace=wrap;html=1;" vertex="1" parent="1">
          <mxGeometry x="710" y="1150" width="60" height="80" as="geometry" />
        </mxCell>
        <mxCell id="cVDtUpflLroiLYzEPpSZ-51" value="ListDiffStatic" style="rounded=1;whiteSpace=wrap;html=1;" vertex="1" parent="1">
          <mxGeometry x="800" y="1160" width="120" height="60" as="geometry" />
        </mxCell>
        <mxCell id="cVDtUpflLroiLYzEPpSZ-52" value="&amp;gt;=" style="triangle;whiteSpace=wrap;html=1;" vertex="1" parent="1">
          <mxGeometry x="950" y="1150" width="60" height="80" as="geometry" />
        </mxCell>
        <mxCell id="cVDtUpflLroiLYzEPpSZ-53" value="0" style="rounded=1;whiteSpace=wrap;html=1;" vertex="1" parent="1">
          <mxGeometry x="1030" y="1160" width="120" height="60" as="geometry" />
        </mxCell>
        <mxCell id="cVDtUpflLroiLYzEPpSZ-54" value="b_keepScrolling" style="rounded=1;whiteSpace=wrap;html=1;" vertex="1" parent="1">
          <mxGeometry x="800" y="1250" width="120" height="60" as="geometry" />
        </mxCell>
        <mxCell id="cVDtUpflLroiLYzEPpSZ-55" value="=" style="triangle;whiteSpace=wrap;html=1;" vertex="1" parent="1">
          <mxGeometry x="950" y="1240" width="60" height="80" as="geometry" />
        </mxCell>
        <mxCell id="cVDtUpflLroiLYzEPpSZ-56" value="true" style="rounded=1;whiteSpace=wrap;html=1;" vertex="1" parent="1">
          <mxGeometry x="1030" y="1250" width="120" height="60" as="geometry" />
        </mxCell>
      </root>
    </mxGraphModel>
  </diagram>
</mxfile>
